<?xml version="1.0" encoding="UTF-8" standalone="no"?>
<!-- Created with Inkscape (http://www.inkscape.org/) -->

<svg
   xmlns:dc="http://purl.org/dc/elements/1.1/"
   xmlns:cc="http://creativecommons.org/ns#"
   xmlns:rdf="http://www.w3.org/1999/02/22-rdf-syntax-ns#"
   xmlns:svg="http://www.w3.org/2000/svg"
   xmlns="http://www.w3.org/2000/svg"
   xmlns:sodipodi="http://sodipodi.sourceforge.net/DTD/sodipodi-0.dtd"
   xmlns:inkscape="http://www.inkscape.org/namespaces/inkscape"
   version="1.1"
   width="740.19635"
   height="740.19635"
   id="svg2985"
   xml:space="preserve"
   inkscape:version="0.91 r13725"
   sodipodi:docname="logo-circle.svg"><sodipodi:namedview
     pagecolor="#ffffff"
     bordercolor="#666666"
     borderopacity="1"
     objecttolerance="10"
     gridtolerance="10"
     guidetolerance="10"
     inkscape:pageopacity="0"
     inkscape:pageshadow="2"
     inkscape:window-width="1600"
     inkscape:window-height="838"
     id="namedview3398"
     showgrid="false"
     inkscape:zoom="0.49311239"
     inkscape:cx="595.66948"
     inkscape:cy="434.52687"
     inkscape:window-x="-8"
     inkscape:window-y="-8"
     inkscape:window-maximized="1"
     inkscape:current-layer="layer1"
     fit-margin-top="0"
     fit-margin-left="0"
     fit-margin-right="0"
     fit-margin-bottom="0" /><metadata
     id="metadata2991"><rdf:RDF><cc:Work
         rdf:about=""><dc:format>image/svg+xml</dc:format><dc:type
           rdf:resource="http://purl.org/dc/dcmitype/StillImage" /><dc:title></dc:title></cc:Work></rdf:RDF></metadata><defs
     id="defs2989"><clipPath
       id="clipPath3019"><path
         d="m 0,841.89 595.28,0 L 595.28,0 0,0 0,841.89 Z"
         id="path3021"
         inkscape:connector-curvature="0" /></clipPath></defs><g
     inkscape:groupmode="layer"
     id="layer1"
     inkscape:label="Layer 1"
     transform="translate(93.285034,128.85297)"><circle
       style="fill:#ffffff"
       id="path3400"
       cx="276.81314"
       cy="241.24521"
       r="370.09818" /></g><g
     inkscape:groupmode="layer"
     id="layer2"
     inkscape:label="Layer 2"
     transform="translate(93.285034,128.85297)"><g
       transform="matrix(1.25,0,0,-1.25,0,475.36072)"
       id="g2993"><g
         transform="translate(36.471903,225.87864)"
         id="g2995"><path
           d="M 0,0 198.281,0"
           id="path2997"
           style="fill:none;stroke:#474749;stroke-width:1.39999998;stroke-linecap:butt;stroke-linejoin:miter;stroke-miterlimit:4;stroke-dasharray:none;stroke-opacity:1"
           inkscape:connector-curvature="0" /></g><g
         transform="translate(36.471903,195.55004)"
         id="g2999"><path
           d="M 0,0 198.281,0"
           id="path3001"
           style="fill:none;stroke:#474749;stroke-width:1.39999998;stroke-linecap:butt;stroke-linejoin:miter;stroke-miterlimit:4;stroke-dasharray:none;stroke-opacity:1"
           inkscape:connector-curvature="0" /></g><g
         transform="translate(36.471903,165.21994)"
         id="g3003"><path
           d="M 0,0 198.281,0"
           id="path3005"
           style="fill:none;stroke:#474749;stroke-width:1.39999998;stroke-linecap:butt;stroke-linejoin:miter;stroke-miterlimit:4;stroke-dasharray:none;stroke-opacity:1"
           inkscape:connector-curvature="0" /></g><g
         transform="translate(36.471903,134.88694)"
         id="g3007"><path
           d="M 0,0 198.281,0"
           id="path3009"
           style="fill:none;stroke:#474749;stroke-width:1.39999998;stroke-linecap:butt;stroke-linejoin:miter;stroke-miterlimit:4;stroke-dasharray:none;stroke-opacity:1"
           inkscape:connector-curvature="0" /></g><g
         transform="translate(36.471903,104.56074)"
         id="g3011"><path
           d="M 0,0 198.281,0"
           id="path3013"
           style="fill:none;stroke:#474749;stroke-width:1.39999998;stroke-linecap:butt;stroke-linejoin:miter;stroke-miterlimit:4;stroke-dasharray:none;stroke-opacity:1"
           inkscape:connector-curvature="0" /></g><g
         transform="translate(-83.336697,-269.89726)"
         id="g3015"><g
           clip-path="url(#clipPath3019)"
           id="g3017"><g
             transform="translate(135.3198,282.1123)"
             id="g3023"><path
               d="m 0,0 c 0.571,0.928 0.987,1.979 1.247,3.153 0.259,1.175 0.391,2.486 0.391,3.937 0,1.49 -0.145,2.856 -0.438,4.102 -0.289,1.246 -0.716,2.308 -1.277,3.185 -0.562,0.867 -1.266,1.544 -2.113,2.029 -0.848,0.484 -1.817,0.728 -2.909,0.728 -1.225,0 -2.267,-0.282 -3.124,-0.843 -0.857,-0.562 -1.557,-1.312 -2.099,-2.251 -0.51,-0.898 -0.889,-1.95 -1.14,-3.154 -0.25,-1.204 -0.374,-2.47 -0.374,-3.796 0,-1.472 0.132,-2.798 0.398,-3.982 0.265,-1.185 0.683,-2.236 1.256,-3.155 0.55,-0.898 1.244,-1.599 2.08,-2.105 0.839,-0.504 1.838,-0.757 3.003,-0.757 1.092,0 2.077,0.256 2.955,0.765 C -1.266,-1.634 -0.552,-0.919 0,0 m 2.28,15.402 c 0.96,-1 1.71,-2.207 2.25,-3.621 C 5.072,10.368 5.342,8.804 5.342,7.09 5.342,5.364 5.066,3.798 4.517,2.388 3.964,0.98 3.199,-0.221 2.22,-1.21 1.27,-2.19 0.167,-2.945 -1.088,-3.476 -2.343,-4.007 -3.68,-4.272 -5.099,-4.272 c -1.511,0 -2.907,0.283 -4.189,0.85 -1.279,0.566 -2.38,1.355 -3.299,2.365 -0.918,0.99 -1.64,2.193 -2.166,3.607 -0.526,1.413 -0.788,2.927 -0.788,4.54 0,1.764 0.275,3.34 0.826,4.723 0.552,1.382 1.312,2.58 2.281,3.589 0.96,1.001 2.074,1.767 3.346,2.297 1.271,0.53 2.6,0.797 3.989,0.797 1.438,0 2.797,-0.27 4.072,-0.811 1.276,-0.542 2.379,-1.302 3.307,-2.283"
               id="path3025"
               style="fill:#474749;fill-opacity:1;fill-rule:nonzero;stroke:none"
               inkscape:connector-curvature="0" /></g><g
             transform="translate(158.6587,291.5137)"
             id="g3027"><path
               d="M 0,0 C 0,-0.521 -0.128,-0.983 -0.383,-1.387 -0.64,-1.79 -1.032,-1.99 -1.563,-1.99 c -0.571,0 -1.007,0.147 -1.308,0.444 -0.302,0.295 -0.453,0.621 -0.453,0.979 0,0.225 0.018,0.428 0.054,0.612 0.035,0.184 0.068,0.368 0.1,0.553 -0.48,0 -1.041,-0.195 -1.684,-0.583 -0.645,-0.388 -1.19,-0.94 -1.64,-1.655 l 0,-8.787 c 0,-0.358 0.07,-0.649 0.208,-0.874 0.137,-0.223 0.354,-0.391 0.651,-0.504 0.254,-0.102 0.584,-0.179 0.987,-0.229 0.403,-0.053 0.753,-0.088 1.05,-0.109 l 0,-1.01 -7.962,0 0,1.01 c 0.234,0.021 0.476,0.041 0.727,0.062 0.249,0.02 0.466,0.061 0.651,0.122 0.284,0.091 0.497,0.253 0.634,0.482 0.138,0.23 0.208,0.528 0.208,0.894 l 0,9.314 c 0,0.316 -0.075,0.627 -0.223,0.932 -0.149,0.307 -0.354,0.552 -0.619,0.734 -0.194,0.124 -0.424,0.212 -0.689,0.269 -0.267,0.056 -0.552,0.094 -0.858,0.114 l 0,1.011 5.022,0.337 0.213,-0.214 0,-2.129 0.077,0 c 0.634,0.827 1.337,1.455 2.113,1.884 0.777,0.428 1.485,0.643 2.129,0.643 0.644,0 1.166,-0.209 1.569,-0.627 C -0.203,1.266 0,0.704 0,0"
               id="path3029"
               style="fill:#474749;fill-opacity:1;fill-rule:nonzero;stroke:none"
               inkscape:connector-curvature="0" /></g><g
             transform="translate(171.0332,277.9629)"
             id="g3031"><path
               d="m 0,0 c -2.185,0 -3.893,0.725 -5.129,2.174 -1.236,1.449 -1.852,3.394 -1.852,5.833 0,1.062 0.165,2.055 0.497,2.979 0.332,0.923 0.814,1.763 1.448,2.518 0.601,0.725 1.356,1.309 2.265,1.754 0.909,0.443 1.899,0.666 2.971,0.666 1.479,0 2.685,-0.356 3.613,-1.065 0.928,-0.71 1.393,-1.676 1.393,-2.901 0,-0.51 -0.123,-0.963 -0.366,-1.354 -0.246,-0.394 -0.65,-0.59 -1.212,-0.59 -0.601,0 -1.068,0.152 -1.399,0.458 -0.333,0.304 -0.498,0.645 -0.498,1.022 0,0.457 0.06,0.929 0.183,1.411 0.123,0.485 0.194,0.837 0.215,1.061 -0.184,0.316 -0.456,0.526 -0.818,0.634 -0.362,0.106 -0.75,0.161 -1.168,0.161 -0.489,0 -0.955,-0.106 -1.398,-0.315 -0.443,-0.209 -0.872,-0.594 -1.29,-1.157 -0.376,-0.51 -0.681,-1.198 -0.916,-2.066 -0.234,-0.868 -0.35,-1.904 -0.35,-3.108 0,-1.899 0.419,-3.448 1.26,-4.646 0.841,-1.2 1.944,-1.8 3.31,-1.8 0.988,0 1.817,0.241 2.484,0.724 0.667,0.482 1.286,1.206 1.858,2.17 L 6.078,3.92 C 5.406,2.715 4.517,1.761 3.415,1.057 2.313,0.352 1.173,0 0,0"
               id="path3033"
               style="fill:#474749;fill-opacity:1;fill-rule:nonzero;stroke:none"
               inkscape:connector-curvature="0" /></g><g
             transform="translate(198.8291,278.3604)"
             id="g3035"><path
               d="m 0,0 -7.426,0 0,1.011 c 0.234,0.02 0.495,0.041 0.779,0.061 0.287,0.021 0.522,0.062 0.706,0.123 0.285,0.092 0.497,0.252 0.634,0.482 0.139,0.229 0.207,0.528 0.207,0.896 l 0,7.763 c 0,1.071 -0.254,1.898 -0.759,2.479 -0.506,0.582 -1.124,0.874 -1.849,0.874 -0.533,0 -1.026,-0.085 -1.482,-0.252 -0.455,-0.169 -0.861,-0.375 -1.219,-0.622 -0.349,-0.253 -0.615,-0.509 -0.799,-0.765 -0.184,-0.254 -0.328,-0.469 -0.429,-0.643 l 0,-8.68 c 0,-0.348 0.069,-0.633 0.205,-0.859 0.14,-0.224 0.35,-0.398 0.637,-0.519 0.225,-0.103 0.457,-0.18 0.696,-0.23 0.24,-0.053 0.503,-0.088 0.789,-0.108 l 0,-1.011 -7.396,0 0,1.011 c 0.234,0.02 0.476,0.044 0.73,0.069 0.254,0.025 0.468,0.064 0.64,0.115 0.283,0.092 0.495,0.253 0.637,0.483 0.142,0.229 0.213,0.527 0.213,0.895 l 0,17.59 c 0,0.348 -0.079,0.695 -0.238,1.042 -0.157,0.348 -0.363,0.608 -0.619,0.782 -0.184,0.133 -0.507,0.227 -0.972,0.284 -0.465,0.055 -0.839,0.093 -1.126,0.114 l 0,0.98 5.588,0.338 0.216,-0.229 0,-10.536 0.06,0 c 0.338,0.336 0.645,0.636 0.922,0.896 0.276,0.261 0.638,0.533 1.088,0.818 0.388,0.246 0.846,0.451 1.373,0.614 0.526,0.164 1.116,0.246 1.771,0.246 1.35,0 2.387,-0.427 3.113,-1.281 0.726,-0.851 1.09,-2.079 1.09,-3.681 l 0,-7.855 C -2.22,2.338 -2.157,2.05 -2.029,1.83 -1.9,1.611 -1.687,1.44 -1.389,1.317 -1.151,1.226 -0.938,1.157 -0.75,1.11 -0.558,1.064 -0.309,1.031 0,1.011 L 0,0 Z"
               id="path3037"
               style="fill:#474749;fill-opacity:1;fill-rule:nonzero;stroke:none"
               inkscape:connector-curvature="0" /></g><g
             transform="translate(214.7881,287.6709)"
             id="g3039"><path
               d="M 0,0 C 0,0.568 -0.049,1.18 -0.146,1.83 -0.243,2.482 -0.399,3.026 -0.612,3.464 -0.848,3.933 -1.17,4.314 -1.578,4.609 -1.986,4.905 -2.513,5.053 -3.155,5.053 -4.227,5.053 -5.118,4.606 -5.826,3.717 -6.536,2.825 -6.921,1.587 -6.983,0 L 0,0 Z M 3.382,-5.759 C 2.75,-6.963 1.903,-7.923 0.842,-8.636 -0.22,-9.352 -1.441,-9.708 -2.819,-9.708 c -1.214,0 -2.277,0.215 -3.191,0.643 -0.914,0.429 -1.667,1.01 -2.258,1.746 -0.593,0.735 -1.034,1.592 -1.326,2.572 -0.29,0.979 -0.435,2.016 -0.435,3.107 0,0.981 0.154,1.943 0.466,2.886 0.311,0.945 0.769,1.795 1.372,2.55 0.581,0.725 1.302,1.309 2.165,1.754 0.862,0.443 1.829,0.666 2.901,0.666 1.103,0 2.048,-0.174 2.833,-0.521 C 0.495,5.348 1.132,4.873 1.622,4.271 2.092,3.699 2.442,3.025 2.671,2.25 2.901,1.474 3.016,0.631 3.016,-0.276 l 0,-1.011 -9.999,0 c 0,-0.992 0.094,-1.893 0.284,-2.701 0.189,-0.808 0.487,-1.519 0.894,-2.133 0.4,-0.593 0.919,-1.062 1.563,-1.403 0.644,-0.344 1.409,-0.515 2.297,-0.515 0.909,0 1.691,0.212 2.35,0.639 0.658,0.425 1.293,1.192 1.906,2.3 l 1.071,-0.659 z"
               id="path3041"
               style="fill:#474749;fill-opacity:1;fill-rule:nonzero;stroke:none"
               inkscape:connector-curvature="0" /></g><g
             transform="translate(233.9917,285.7568)"
             id="g3043"><path
               d="m 0,0 c 0.418,-0.368 0.739,-0.792 0.964,-1.271 0.225,-0.48 0.337,-1.067 0.337,-1.761 0,-1.399 -0.523,-2.541 -1.569,-3.43 -1.046,-0.888 -2.402,-1.332 -4.065,-1.332 -0.878,0 -1.687,0.159 -2.427,0.475 -0.74,0.315 -1.269,0.606 -1.585,0.872 l -0.306,-0.995 -1.148,0 -0.154,5.252 1.057,0 c 0.083,-0.4 0.254,-0.866 0.52,-1.399 0.266,-0.531 0.587,-1.015 0.965,-1.443 0.399,-0.451 0.875,-0.83 1.432,-1.138 0.556,-0.308 1.182,-0.461 1.876,-0.461 0.979,0 1.735,0.224 2.266,0.67 0.53,0.447 0.796,1.086 0.796,1.918 0,0.429 -0.084,0.799 -0.254,1.11 -0.166,0.311 -0.415,0.584 -0.741,0.82 -0.338,0.234 -0.752,0.446 -1.241,0.635 -0.49,0.189 -1.036,0.374 -1.638,0.559 -0.48,0.143 -1.013,0.339 -1.599,0.589 -0.588,0.251 -1.091,0.543 -1.509,0.881 -0.449,0.356 -0.817,0.796 -1.102,1.316 -0.286,0.522 -0.43,1.134 -0.43,1.838 0,1.234 0.46,2.281 1.378,3.139 0.919,0.856 2.15,1.286 3.692,1.286 0.59,0 1.195,-0.076 1.812,-0.23 0.618,-0.153 1.121,-0.337 1.509,-0.55 l 0.353,0.795 1.102,0 0.23,-4.853 -1.057,0 c -0.214,1.085 -0.677,1.97 -1.385,2.652 -0.711,0.681 -1.575,1.023 -2.596,1.023 -0.837,0 -1.496,-0.212 -1.975,-0.633 -0.48,-0.422 -0.719,-0.93 -0.719,-1.527 0,-0.459 0.079,-0.842 0.237,-1.149 0.158,-0.306 0.395,-0.566 0.711,-0.78 0.306,-0.204 0.692,-0.396 1.157,-0.574 0.465,-0.18 1.039,-0.38 1.722,-0.605 0.673,-0.215 1.31,-0.465 1.906,-0.751 C -0.88,0.663 -0.388,0.346 0,0"
               id="path3045"
               style="fill:#474749;fill-opacity:1;fill-rule:nonzero;stroke:none"
               inkscape:connector-curvature="0" /></g><g
             transform="translate(251.0078,279.0195)"
             id="g3047"><path
               d="m 0,0 c -0.665,-0.276 -1.292,-0.509 -1.884,-0.697 -0.592,-0.189 -1.317,-0.282 -2.174,-0.282 -1.266,0 -2.157,0.318 -2.671,0.956 -0.517,0.637 -0.774,1.538 -0.774,2.703 l 0,10.227 -2.726,0 0,1.469 2.787,0 0,4.702 2.787,0 0,-4.702 4.332,0 0,-1.469 -4.301,0 0,-8.436 c 0,-0.633 0.022,-1.161 0.069,-1.585 0.046,-0.424 0.156,-0.794 0.328,-1.11 0.164,-0.297 0.409,-0.521 0.735,-0.673 0.327,-0.154 0.766,-0.231 1.318,-0.231 0.255,0 0.629,0.024 1.124,0.068 0.495,0.047 0.845,0.106 1.05,0.177 L 0,0 Z"
               id="path3049"
               style="fill:#474749;fill-opacity:1;fill-rule:nonzero;stroke:none"
               inkscape:connector-curvature="0" /></g><g
             transform="translate(268.1753,291.5137)"
             id="g3051"><path
               d="M 0,0 C 0,-0.521 -0.128,-0.983 -0.383,-1.387 -0.638,-1.79 -1.031,-1.99 -1.561,-1.99 c -0.573,0 -1.009,0.147 -1.31,0.444 -0.3,0.295 -0.451,0.621 -0.451,0.979 0,0.225 0.017,0.428 0.052,0.612 0.037,0.184 0.07,0.368 0.101,0.553 -0.481,0 -1.041,-0.195 -1.684,-0.583 -0.644,-0.388 -1.189,-0.94 -1.639,-1.655 l 0,-8.787 c 0,-0.358 0.07,-0.649 0.206,-0.874 0.139,-0.223 0.356,-0.391 0.651,-0.504 0.256,-0.102 0.585,-0.179 0.987,-0.229 0.405,-0.053 0.753,-0.088 1.05,-0.109 l 0,-1.01 -7.962,0 0,1.01 c 0.235,0.021 0.477,0.041 0.727,0.062 0.25,0.02 0.468,0.061 0.651,0.122 0.286,0.091 0.498,0.253 0.635,0.482 0.139,0.23 0.207,0.528 0.207,0.894 l 0,9.314 c 0,0.316 -0.074,0.627 -0.221,0.932 -0.149,0.307 -0.356,0.552 -0.621,0.734 -0.194,0.124 -0.423,0.212 -0.689,0.269 -0.265,0.056 -0.552,0.094 -0.858,0.114 l 0,1.011 5.022,0.337 0.215,-0.214 0,-2.129 0.076,0 c 0.633,0.827 1.337,1.455 2.113,1.884 0.776,0.428 1.486,0.643 2.13,0.643 0.642,0 1.164,-0.209 1.569,-0.627 C -0.202,1.266 0,0.704 0,0"
               id="path3053"
               style="fill:#474749;fill-opacity:1;fill-rule:nonzero;stroke:none"
               inkscape:connector-curvature="0" /></g><g
             transform="translate(283.5986,287.6709)"
             id="g3055"><path
               d="M 0,0 C 0,0.568 -0.049,1.18 -0.146,1.83 -0.243,2.482 -0.399,3.026 -0.612,3.464 -0.847,3.933 -1.17,4.314 -1.577,4.609 -1.986,4.905 -2.513,5.053 -3.155,5.053 -4.227,5.053 -5.118,4.606 -5.826,3.717 -6.536,2.825 -6.921,1.587 -6.983,0 L 0,0 Z M 3.382,-5.759 C 2.751,-6.963 1.903,-7.923 0.842,-8.636 -0.22,-9.352 -1.44,-9.708 -2.819,-9.708 c -1.214,0 -2.277,0.215 -3.19,0.643 -0.915,0.429 -1.668,1.01 -2.259,1.746 -0.593,0.735 -1.033,1.592 -1.326,2.572 -0.29,0.979 -0.435,2.016 -0.435,3.107 0,0.981 0.155,1.943 0.466,2.886 0.311,0.945 0.769,1.795 1.372,2.55 0.581,0.725 1.302,1.309 2.165,1.754 0.863,0.443 1.829,0.666 2.901,0.666 1.104,0 2.048,-0.174 2.833,-0.521 C 0.495,5.348 1.132,4.873 1.622,4.271 2.092,3.699 2.442,3.025 2.671,2.25 2.901,1.474 3.016,0.631 3.016,-0.276 l 0,-1.011 -9.999,0 c 0,-0.992 0.094,-1.893 0.285,-2.701 0.188,-0.808 0.486,-1.519 0.894,-2.133 0.399,-0.593 0.918,-1.062 1.562,-1.403 0.644,-0.344 1.409,-0.515 2.297,-0.515 0.909,0 1.691,0.212 2.35,0.639 0.659,0.425 1.293,1.192 1.906,2.3 l 1.071,-0.659 z"
               id="path3057"
               style="fill:#474749;fill-opacity:1;fill-rule:nonzero;stroke:none"
               inkscape:connector-curvature="0" /></g><g
             transform="translate(304.5947,281.4082)"
             id="g3059"><path
               d="m 0,0 0,8.65 c -0.071,0.235 -0.171,0.496 -0.298,0.782 -0.128,0.285 -0.304,0.555 -0.528,0.811 -0.202,0.214 -0.476,0.403 -0.816,0.567 -0.34,0.162 -0.726,0.244 -1.153,0.244 -1.019,0 -1.853,-0.576 -2.506,-1.729 -0.652,-1.154 -0.977,-2.782 -0.977,-4.885 0,-0.827 0.058,-1.569 0.175,-2.228 0.118,-0.658 0.324,-1.258 0.62,-1.799 0.295,-0.542 0.673,-0.964 1.138,-1.27 0.462,-0.306 1.02,-0.459 1.671,-0.459 0.622,0 1.137,0.119 1.543,0.359 C -0.724,-0.718 -0.348,-0.398 0,0 m 7.809,-2.727 -7.549,-0.444 -0.23,0.215 0,1.41 -0.107,0.029 c -0.499,-0.541 -1.176,-1.012 -2.026,-1.416 -0.85,-0.403 -1.71,-0.604 -2.576,-0.604 -2.06,0 -3.756,0.766 -5.093,2.297 -1.334,1.531 -2.003,3.511 -2.003,5.94 0,2.154 0.748,4.001 2.241,5.543 1.492,1.541 3.3,2.312 5.42,2.312 0.836,0 1.622,-0.094 2.356,-0.283 0.733,-0.19 1.32,-0.412 1.758,-0.668 l 0,5.008 c 0,0.378 -0.077,0.732 -0.229,1.064 -0.154,0.333 -0.359,0.59 -0.614,0.774 -0.316,0.224 -0.712,0.386 -1.186,0.483 -0.474,0.095 -0.951,0.165 -1.431,0.206 l 0,1.117 8.283,0.399 0.23,-0.246 0,-20.073 c 0,-0.388 0.062,-0.715 0.189,-0.981 0.128,-0.264 0.333,-0.473 0.617,-0.626 0.213,-0.113 0.525,-0.195 0.937,-0.246 0.411,-0.049 0.749,-0.082 1.013,-0.09 l 0,-1.12 z"
               id="path3061"
               style="fill:#474749;fill-opacity:1;fill-rule:nonzero;stroke:none"
               inkscape:connector-curvature="0" /></g><g
             transform="translate(318.1338,292.126)"
             id="g3063"><path
               d="M 0,0 C 1.158,0.561 2.064,1.214 2.721,1.959 3.377,2.704 3.756,3.607 3.858,4.67 l -0.861,0 C 2.362,4.67 1.845,4.741 1.445,4.885 1.046,5.026 0.722,5.227 0.478,5.48 0.241,5.716 0.074,5.983 -0.022,6.284 -0.12,6.587 -0.169,6.895 -0.169,7.211 c 0,0.654 0.264,1.226 0.791,1.715 0.526,0.49 1.149,0.735 1.865,0.735 1.125,0 1.991,-0.373 2.593,-1.118 C 5.685,7.798 5.986,6.767 5.986,5.45 5.986,4.226 5.467,2.99 4.429,1.746 3.39,0.5 2.139,-0.444 0.676,-1.087 L 0,0 Z"
               id="path3065"
               style="fill:#474749;fill-opacity:1;fill-rule:nonzero;stroke:none"
               inkscape:connector-curvature="0" /></g><g
             transform="translate(349.9561,278.3604)"
             id="g3067"><path
               d="m 0,0 -9.204,0 0,1.119 c 0.205,0.019 0.444,0.045 0.721,0.076 0.275,0.031 0.48,0.081 0.612,0.154 0.215,0.112 0.365,0.274 0.451,0.489 0.088,0.215 0.13,0.53 0.13,0.948 l 0,7.167 c 0,1.051 -0.195,1.837 -0.589,2.358 -0.392,0.521 -0.951,0.781 -1.676,0.781 -0.409,0 -0.789,-0.062 -1.141,-0.184 -0.352,-0.123 -0.697,-0.302 -1.033,-0.535 -0.296,-0.205 -0.534,-0.415 -0.711,-0.629 -0.18,-0.214 -0.331,-0.403 -0.454,-0.566 l 0,-8.222 c 0,-0.379 0.047,-0.677 0.139,-0.896 0.091,-0.219 0.265,-0.401 0.521,-0.543 0.153,-0.092 0.354,-0.174 0.604,-0.246 0.25,-0.072 0.492,-0.123 0.727,-0.152 l 0,-1.119 -9.34,0 0,1.119 c 0.268,0.019 0.526,0.045 0.778,0.076 0.253,0.031 0.476,0.081 0.671,0.154 0.328,0.121 0.553,0.297 0.672,0.527 0.117,0.229 0.176,0.533 0.176,0.91 l 0,17.072 c 0,0.328 -0.076,0.674 -0.23,1.042 -0.153,0.369 -0.368,0.643 -0.642,0.828 -0.205,0.132 -0.5,0.236 -0.889,0.313 -0.388,0.076 -0.734,0.125 -1.04,0.146 l 0,1.117 7.624,0.399 0.229,-0.246 0,-10.533 0.062,0 c 0.387,0.347 0.735,0.66 1.048,0.941 0.309,0.281 0.689,0.564 1.138,0.85 0.377,0.244 0.87,0.453 1.475,0.627 0.608,0.174 1.262,0.261 1.966,0.261 1.65,0 2.892,-0.474 3.723,-1.424 0.83,-0.95 1.245,-2.2 1.245,-3.752 l 0,-7.502 c 0,-0.378 0.056,-0.679 0.17,-0.904 C -1.955,1.797 -1.746,1.618 -1.44,1.485 -1.257,1.404 -1.053,1.332 -0.827,1.271 -0.604,1.21 -0.327,1.158 0,1.119 L 0,0 Z"
               id="path3069"
               style="fill:#474749;fill-opacity:1;fill-rule:nonzero;stroke:none"
               inkscape:connector-curvature="0" /></g><g
             transform="translate(365.3779,286.6592)"
             id="g3071"><path
               d="M 0,0 C -0.574,-0.194 -1.144,-0.417 -1.706,-0.667 -2.27,-0.918 -2.73,-1.182 -3.089,-1.457 -3.467,-1.744 -3.766,-2.109 -3.979,-2.556 -4.196,-3 -4.303,-3.524 -4.303,-4.129 c 0,-0.797 0.183,-1.375 0.546,-1.733 0.363,-0.359 0.812,-0.537 1.344,-0.537 0.563,0 1.028,0.114 1.392,0.344 0.363,0.231 0.683,0.514 0.959,0.853 L 0,0 Z M 7.594,-7.978 C 7.146,-8.171 6.616,-8.349 6.005,-8.513 5.395,-8.676 4.746,-8.758 4.064,-8.758 c -1.252,0 -2.175,0.186 -2.765,0.56 -0.591,0.371 -0.994,0.904 -1.207,1.599 l -0.092,0 c -0.348,-0.347 -0.683,-0.642 -1.005,-0.887 -0.321,-0.246 -0.667,-0.455 -1.035,-0.629 -0.48,-0.225 -0.943,-0.393 -1.388,-0.504 -0.445,-0.112 -1.066,-0.169 -1.863,-0.169 -1.187,0 -2.198,0.35 -3.036,1.05 -0.84,0.7 -1.258,1.629 -1.258,2.784 0,0.664 0.092,1.228 0.276,1.693 0.183,0.465 0.445,0.876 0.783,1.235 0.305,0.328 0.661,0.598 1.064,0.813 0.405,0.215 0.847,0.414 1.327,0.598 0.921,0.338 2.026,0.687 3.313,1.05 1.288,0.363 2.228,0.687 2.822,0.974 l 0,1.47 c 0,0.256 -0.021,0.592 -0.062,1.01 -0.041,0.419 -0.126,0.771 -0.259,1.057 -0.144,0.326 -0.368,0.602 -0.674,0.827 -0.307,0.224 -0.71,0.336 -1.21,0.336 -0.45,0 -0.826,-0.064 -1.127,-0.191 C -3.633,5.791 -3.876,5.661 -4.06,5.528 -4.029,5.323 -3.941,5.012 -3.798,4.593 -3.654,4.175 -3.583,3.771 -3.583,3.385 -3.583,3.211 -3.63,2.994 -3.722,2.734 -3.813,2.473 -3.947,2.267 -4.12,2.113 -4.355,1.909 -4.619,1.751 -4.911,1.639 -5.203,1.527 -5.651,1.471 -6.255,1.471 c -0.859,0 -1.511,0.206 -1.95,0.619 -0.441,0.414 -0.661,0.952 -0.661,1.616 0,0.571 0.227,1.084 0.682,1.538 0.455,0.455 1.008,0.83 1.662,1.126 0.642,0.307 1.381,0.543 2.219,0.711 0.837,0.17 1.613,0.253 2.327,0.253 0.99,0 1.899,-0.059 2.726,-0.176 C 1.577,7.04 2.322,6.798 2.985,6.431 3.618,6.074 4.121,5.556 4.493,4.878 4.866,4.198 5.053,3.313 5.053,2.22 c 0,-1.153 -0.024,-2.521 -0.069,-4.103 -0.046,-1.583 -0.07,-2.623 -0.07,-3.124 0,-0.459 0.07,-0.821 0.207,-1.087 0.138,-0.264 0.35,-0.464 0.636,-0.596 0.174,-0.082 0.446,-0.13 0.818,-0.146 0.373,-0.016 0.713,-0.022 1.019,-0.022 l 0,-1.12 z"
               id="path3073"
               style="fill:#474749;fill-opacity:1;fill-rule:nonzero;stroke:none"
               inkscape:connector-curvature="0" /></g><g
             transform="translate(393.5098,290.748)"
             id="g3075"><path
               d="m 0,0 c 0,-0.776 -0.241,-1.457 -0.721,-2.044 -0.479,-0.588 -1.113,-0.88 -1.897,-0.88 -0.746,0 -1.377,0.187 -1.892,0.563 -0.515,0.376 -0.772,0.929 -0.772,1.663 0,0.355 0.024,0.633 0.076,0.831 0.051,0.198 0.097,0.383 0.138,0.555 -0.47,-0.02 -0.965,-0.182 -1.486,-0.485 -0.521,-0.305 -0.98,-0.708 -1.378,-1.214 l 0,-8.406 c 0,-0.357 0.056,-0.653 0.168,-0.889 0.113,-0.234 0.302,-0.418 0.568,-0.55 0.223,-0.112 0.589,-0.207 1.094,-0.283 0.505,-0.077 0.87,-0.121 1.094,-0.13 l 0,-1.119 -10.242,0 0,1.119 c 0.254,0.019 0.513,0.048 0.772,0.083 0.261,0.036 0.483,0.085 0.666,0.147 0.327,0.112 0.552,0.285 0.674,0.519 0.123,0.236 0.185,0.541 0.185,0.918 l 0,8.913 c 0,0.368 -0.088,0.696 -0.262,0.987 -0.173,0.291 -0.383,0.523 -0.627,0.697 -0.183,0.122 -0.416,0.225 -0.697,0.307 -0.28,0.08 -0.589,0.137 -0.926,0.168 l 0,1.118 7.303,0.397 0.23,-0.229 0,-2.22 0.062,0 c 0.704,0.816 1.451,1.457 2.243,1.92 0.79,0.465 1.614,0.697 2.473,0.697 0.949,0 1.712,-0.294 2.289,-0.88 C -0.289,1.687 0,0.928 0,0"
               id="path3077"
               style="fill:#474749;fill-opacity:1;fill-rule:nonzero;stroke:none"
               inkscape:connector-curvature="0" /></g><g
             transform="translate(429.082,278.3604)"
             id="g3079"><path
               d="m 0,0 -9.095,0 0,1.119 c 0.223,0.029 0.455,0.056 0.699,0.076 0.243,0.02 0.446,0.072 0.607,0.154 0.223,0.1 0.365,0.271 0.425,0.512 0.061,0.24 0.092,0.548 0.092,0.925 l 0,7.152 c 0,1.051 -0.188,1.84 -0.561,2.365 -0.375,0.526 -0.909,0.789 -1.605,0.789 -0.44,0 -0.832,-0.069 -1.174,-0.207 -0.343,-0.138 -0.658,-0.309 -0.945,-0.512 -0.297,-0.215 -0.528,-0.43 -0.69,-0.644 -0.164,-0.215 -0.303,-0.398 -0.416,-0.551 l 0,-8.222 c 0,-0.368 0.044,-0.667 0.13,-0.896 0.086,-0.23 0.245,-0.411 0.478,-0.543 0.161,-0.092 0.346,-0.174 0.554,-0.246 0.208,-0.072 0.428,-0.123 0.66,-0.152 l 0,-1.119 -8.696,0 0,1.119 c 0.191,0.019 0.426,0.045 0.697,0.076 0.274,0.031 0.477,0.081 0.609,0.154 0.211,0.112 0.351,0.274 0.417,0.489 0.066,0.215 0.098,0.53 0.098,0.948 l 0,7.152 c 0,1.051 -0.185,1.84 -0.56,2.365 -0.373,0.526 -0.908,0.789 -1.604,0.789 -0.44,0 -0.832,-0.069 -1.176,-0.207 -0.342,-0.138 -0.657,-0.309 -0.943,-0.512 -0.297,-0.215 -0.527,-0.43 -0.691,-0.644 -0.164,-0.215 -0.302,-0.398 -0.414,-0.551 l 0,-8.222 c 0,-0.358 0.045,-0.653 0.137,-0.889 0.092,-0.235 0.254,-0.418 0.489,-0.55 0.165,-0.092 0.351,-0.174 0.56,-0.246 0.209,-0.072 0.431,-0.123 0.666,-0.152 l 0,-1.119 -9.172,0 0,1.119 c 0.265,0.019 0.527,0.045 0.781,0.076 0.255,0.031 0.475,0.081 0.659,0.154 0.326,0.121 0.55,0.297 0.673,0.527 0.123,0.229 0.184,0.533 0.184,0.91 l 0,8.912 c 0,0.327 -0.087,0.646 -0.26,0.957 -0.174,0.311 -0.383,0.554 -0.628,0.728 -0.184,0.122 -0.417,0.224 -0.697,0.306 -0.28,0.081 -0.589,0.138 -0.926,0.168 l 0,1.119 7.304,0.397 0.23,-0.229 0,-2.159 0.061,0 c 0.285,0.254 0.624,0.558 1.019,0.911 0.391,0.352 0.762,0.635 1.109,0.85 0.378,0.244 0.861,0.448 1.455,0.612 0.592,0.163 1.24,0.245 1.944,0.245 1.163,0 2.135,-0.253 2.917,-0.759 0.781,-0.504 1.334,-1.175 1.661,-2.012 l 0.138,0 c 0.296,0.274 0.657,0.599 1.087,0.972 0.428,0.372 0.821,0.672 1.179,0.895 0.397,0.256 0.906,0.469 1.524,0.643 0.616,0.174 1.279,0.261 1.982,0.261 1.541,0 2.727,-0.456 3.56,-1.363 0.831,-0.909 1.248,-2.2 1.248,-3.875 l 0,-7.44 c 0,-0.378 0.056,-0.681 0.168,-0.911 0.113,-0.23 0.316,-0.406 0.613,-0.529 C -1.276,1.414 -1.074,1.343 -0.835,1.271 -0.595,1.199 -0.316,1.148 0,1.119 L 0,0 Z"
               id="path3081"
               style="fill:#474749;fill-opacity:1;fill-rule:nonzero;stroke:none"
               inkscape:connector-curvature="0" /></g><g
             transform="translate(446.3428,281.1318)"
             id="g3083"><path
               d="m 0,0 c 0.225,0.571 0.39,1.266 0.498,2.082 0.106,0.817 0.16,1.767 0.16,2.849 0,0.714 -0.051,1.531 -0.153,2.45 C 0.402,8.3 0.249,9.024 0.046,9.555 c -0.245,0.642 -0.584,1.148 -1.019,1.515 -0.433,0.368 -0.981,0.552 -1.646,0.552 -0.725,0 -1.304,-0.2 -1.737,-0.598 C -4.79,10.626 -5.125,10.111 -5.358,9.479 -5.573,8.896 -5.723,8.215 -5.803,7.435 -5.885,6.653 -5.926,5.839 -5.926,4.991 c 0,-1.112 0.035,-2.033 0.108,-2.762 0.071,-0.731 0.245,-1.463 0.519,-2.198 0.236,-0.633 0.571,-1.133 1.012,-1.501 0.439,-0.367 0.995,-0.551 1.668,-0.551 0.612,0 1.139,0.171 1.578,0.513 C -0.603,-1.166 -0.255,-0.663 0,0 M 3.92,10.611 C 4.675,9.907 5.251,9.065 5.649,8.085 6.048,7.104 6.246,6.043 6.246,4.899 6.246,3.767 6.05,2.697 5.657,1.692 5.264,0.687 4.689,-0.174 3.935,-0.887 3.128,-1.652 2.166,-2.24 1.049,-2.648 c -1.118,-0.409 -2.397,-0.613 -3.836,-0.613 -1.245,0 -2.391,0.178 -3.437,0.536 -1.047,0.357 -1.972,0.893 -2.779,1.608 -0.777,0.683 -1.39,1.528 -1.838,2.533 -0.449,1.007 -0.674,2.132 -0.674,3.377 0,1.225 0.198,2.314 0.589,3.269 0.395,0.954 0.984,1.804 1.77,2.549 0.755,0.714 1.686,1.268 2.794,1.661 1.107,0.393 2.344,0.589 3.713,0.589 1.428,0 2.688,-0.196 3.774,-0.589 1.087,-0.393 2.019,-0.947 2.795,-1.661"
               id="path3085"
               style="fill:#474749;fill-opacity:1;fill-rule:nonzero;stroke:none"
               inkscape:connector-curvature="0" /></g><g
             transform="translate(478.8838,278.3604)"
             id="g3087"><path
               d="m 0,0 -9.203,0 0,1.119 c 0.194,0.019 0.429,0.045 0.705,0.076 0.275,0.031 0.484,0.081 0.628,0.154 0.215,0.112 0.367,0.274 0.459,0.489 0.092,0.215 0.139,0.53 0.139,0.948 l 0,7.167 c 0,1.041 -0.194,1.825 -0.578,2.35 -0.382,0.526 -0.949,0.789 -1.696,0.789 -0.409,0 -0.791,-0.062 -1.143,-0.184 -0.354,-0.123 -0.699,-0.302 -1.037,-0.535 -0.296,-0.205 -0.536,-0.415 -0.714,-0.629 -0.179,-0.214 -0.33,-0.403 -0.453,-0.566 l 0,-8.222 c 0,-0.358 0.05,-0.656 0.153,-0.896 0.102,-0.24 0.271,-0.421 0.506,-0.543 0.163,-0.092 0.368,-0.174 0.612,-0.246 0.245,-0.072 0.484,-0.123 0.72,-0.152 l 0,-1.119 -9.309,0 0,1.119 c 0.254,0.019 0.513,0.048 0.773,0.083 0.26,0.035 0.482,0.085 0.666,0.147 0.326,0.112 0.551,0.285 0.673,0.519 0.123,0.236 0.185,0.541 0.185,0.918 l 0,8.912 c 0,0.317 -0.082,0.628 -0.246,0.934 -0.163,0.306 -0.378,0.556 -0.643,0.751 -0.183,0.122 -0.416,0.224 -0.697,0.306 -0.28,0.081 -0.589,0.138 -0.926,0.168 l 0,1.119 7.303,0.397 0.23,-0.229 0,-2.22 0.062,0 c 0.285,0.254 0.633,0.56 1.041,0.918 0.407,0.357 0.785,0.648 1.132,0.873 0.379,0.244 0.874,0.453 1.486,0.627 0.612,0.174 1.266,0.261 1.959,0.261 1.664,0 2.912,-0.473 3.744,-1.416 0.832,-0.945 1.249,-2.197 1.249,-3.76 l 0,-7.502 c 0,-0.378 0.056,-0.679 0.168,-0.904 C -1.94,1.797 -1.73,1.618 -1.425,1.485 -1.262,1.414 -1.06,1.343 -0.82,1.271 -0.58,1.199 -0.307,1.148 0,1.119 L 0,0 Z"
               id="path3089"
               style="fill:#474749;fill-opacity:1;fill-rule:nonzero;stroke:none"
               inkscape:connector-curvature="0" /></g><g
             transform="translate(491.8574,299.2461)"
             id="g3091"><path
               d="m 0,0 c 0,-0.777 -0.3,-1.438 -0.896,-1.984 -0.597,-0.545 -1.303,-0.819 -2.122,-0.819 -0.825,0 -1.538,0.274 -2.134,0.819 -0.598,0.546 -0.896,1.207 -0.896,1.984 0,0.774 0.298,1.439 0.896,1.99 0.596,0.551 1.309,0.827 2.134,0.827 0.828,0 1.538,-0.276 2.129,-0.827 C -0.297,1.439 0,0.774 0,0 m 2.235,-20.886 -9.676,0 0,1.119 c 0.265,0.019 0.525,0.045 0.781,0.077 0.254,0.03 0.473,0.081 0.657,0.153 0.327,0.121 0.557,0.298 0.69,0.527 0.131,0.23 0.199,0.533 0.199,0.91 l 0,8.912 c 0,0.358 -0.082,0.672 -0.245,0.943 -0.164,0.269 -0.368,0.486 -0.613,0.65 -0.184,0.122 -0.462,0.24 -0.835,0.352 -0.372,0.112 -0.711,0.184 -1.017,0.215 l 0,1.118 7.503,0.397 0.229,-0.229 0,-12.157 c 0,-0.358 0.077,-0.663 0.23,-0.911 0.153,-0.251 0.372,-0.437 0.658,-0.559 0.203,-0.092 0.429,-0.174 0.674,-0.245 0.244,-0.073 0.5,-0.123 0.765,-0.153 l 0,-1.119 z"
               id="path3093"
               style="fill:#474749;fill-opacity:1;fill-rule:nonzero;stroke:none"
               inkscape:connector-curvature="0" /></g><g
             transform="translate(510.2188,287.8389)"
             id="g3095"><path
               d="M 0,0 C 0,0.612 -0.03,1.24 -0.092,1.883 -0.153,2.526 -0.26,3.051 -0.413,3.46 -0.587,3.939 -0.824,4.302 -1.125,4.547 -1.426,4.792 -1.806,4.915 -2.266,4.915 -3.052,4.915 -3.681,4.517 -4.149,3.72 -4.619,2.924 -4.874,1.664 -4.915,-0.062 L 0,0 Z M 5.85,-5.818 C 5.491,-6.4 5.061,-6.949 4.555,-7.465 4.051,-7.979 3.477,-8.421 2.832,-8.789 2.148,-9.178 1.457,-9.47 0.759,-9.67 c -0.7,-0.199 -1.504,-0.298 -2.412,-0.298 -1.512,0 -2.815,0.214 -3.912,0.643 -1.098,0.429 -2.003,1.005 -2.718,1.731 -0.715,0.724 -1.248,1.578 -1.6,2.565 -0.352,0.984 -0.529,2.052 -0.529,3.207 0,1.042 0.191,2.038 0.574,2.994 0.383,0.954 0.927,1.803 1.631,2.548 0.694,0.724 1.569,1.312 2.627,1.76 1.057,0.451 2.237,0.674 3.544,0.674 1.429,0 2.603,-0.174 3.522,-0.52 C 2.404,5.286 3.165,4.808 3.767,4.195 4.349,3.613 4.772,2.927 5.037,2.136 5.303,1.344 5.436,0.516 5.436,-0.353 l 0,-0.995 -10.351,0 c 0,-2.093 0.403,-3.684 1.21,-4.777 0.807,-1.092 2.088,-1.639 3.843,-1.639 0.96,0 1.822,0.264 2.588,0.789 0.765,0.527 1.419,1.192 1.959,1.998 L 5.85,-5.818 Z"
               id="path3097"
               style="fill:#474749;fill-opacity:1;fill-rule:nonzero;stroke:none"
               inkscape:connector-curvature="0" /></g><g
             transform="translate(418.332,368.9873)"
             id="g3099"><path
               d="m 0,0 c -31.122,0 -46.656,19.586 -46.656,58.805 0,38.925 15.534,58.424 46.656,58.424 31.102,0 46.641,-19.499 46.641,-58.424 C 46.641,19.586 31.102,0 0,0 m 90.771,101.012 c -4.563,12.576 -11.075,23.269 -19.559,32.046 -8.489,8.771 -18.732,15.563 -30.729,20.412 -11.998,4.846 -25.557,7.277 -40.683,7.277 -15.375,0 -29.168,-2.431 -41.286,-7.277 -12.13,-4.849 -22.498,-11.708 -31.111,-20.612 -6.691,-6.94 -12.132,-14.966 -16.376,-24.089 l 0,51.978 -43.226,0 0,-76.926 -78.743,0 0,191.452 -43.501,0 c -2.819,-44.772 -31.73,-69.954 -31.73,-69.954 -82.92,-71.138 -21.547,-157.671 -17.906,-162.644 l 2.875,0 c -51.927,120.356 26.282,146.334 47.052,150.999 l 0,-32.927 -0.008,0 0,-203.504 0.008,0 0,-0.033 43.21,0 0,91.371 78.743,0 0,-91.338 43.226,0 0,51.727 c 4.104,-8.865 9.365,-16.672 15.792,-23.423 8.466,-8.914 18.837,-15.866 31.12,-20.844 12.25,-4.969 26.196,-7.46 41.861,-7.46 14.867,0 28.364,2.427 40.489,7.272 12.156,4.851 22.434,11.706 30.923,20.614 8.484,8.905 14.996,19.596 19.559,32.033 4.563,12.445 6.855,26.385 6.855,41.836 0,15.442 -2.292,29.452 -6.855,42.014"
               id="path3101"
               style="fill:#474749;fill-opacity:1;fill-rule:nonzero;stroke:none"
               inkscape:connector-curvature="0" /></g><g
             transform="translate(302.5889,388.2578)"
             id="g3103"><path
               d="m 0,0 c 0,3.591 0.289,6.947 0.865,10.065 0.597,3.117 1.723,6.198 3.408,9.244 1.669,3.051 4.028,6.125 7.07,9.236 3.045,3.117 7.053,6.482 12.054,10.065 2.81,1.949 5.124,3.708 6.959,5.27 1.834,1.557 3.292,3.033 4.393,4.445 1.086,1.4 1.863,2.812 2.335,4.204 0.47,1.413 0.702,2.939 0.702,4.573 0,1.943 -0.276,3.579 -0.821,4.906 -0.544,1.336 -1.299,2.375 -2.271,3.161 -0.979,0.779 -2.126,1.327 -3.467,1.64 -1.318,0.309 -2.725,0.47 -4.203,0.47 -3.513,0 -6.287,-0.993 -8.304,-2.985 -2.034,-1.991 -3.042,-5.605 -3.042,-10.821 l -14.629,0 c 0,8.42 2.206,14.986 6.608,19.704 4.41,4.733 10.628,7.102 18.665,7.102 3.899,0 7.461,-0.488 10.707,-1.418 3.235,-0.935 6.001,-2.343 8.305,-4.212 2.3,-1.874 4.099,-4.232 5.385,-7.083 1.285,-2.843 1.931,-6.186 1.931,-9.993 0,-2.97 -0.39,-5.657 -1.176,-8.076 -0.779,-2.415 -2.041,-4.802 -3.797,-7.14 -1.762,-2.345 -4.082,-4.716 -6.964,-7.133 -2.889,-2.414 -6.394,-5.11 -10.534,-8.076 -2.961,-2.191 -5.459,-4.54 -7.487,-7.084 -2.023,-2.533 -3.12,-4.809 -3.271,-6.835 l 33.454,0 L 52.875,0 0,0 Z"
               id="path3105"
               style="fill:#ffffff;fill-opacity:1;fill-rule:nonzero;stroke:none"
               inkscape:connector-curvature="0" /></g><g
             transform="translate(172.291,644.2622)"
             id="g3107"><path
               d="m 0,0 0.003,0.047 -8.399,0 C -8.398,0.031 -8.399,0.014 -8.402,-0.002 l 43.501,0 0,0.002 L 0,0 Z"
               id="path3109"
               style="fill:#ffffff;fill-opacity:1;fill-rule:nonzero;stroke:none"
               inkscape:connector-curvature="0" /></g></g></g></g></g></svg>